solid CATIA STL
  facet normal  1.000000e+000  -0.000000e+000  0.000000e+000
    outer loop
      vertex  9.000000e+000 -8.611339e-001  1.288778e+000
      vertex  9.000000e+000 -2.035160e+000  1.175000e+000
      vertex  9.000000e+000 -1.096015e+000  1.096015e+000
    endloop
  endfacet
  facet normal  1.000000e+000  0.000000e+000  -0.000000e+000
    outer loop
      vertex  9.000000e+000  8.611339e-001  1.288778e+000
      vertex  9.000000e+000  1.096015e+000  1.096015e+000
      vertex  9.000000e+000  2.035160e+000  1.175000e+000
    endloop
  endfacet
  facet normal  9.999999e-001  -0.000000e+000  -0.000000e+000
    outer loop
      vertex  9.000000e+000  9.491013e-017  1.550000e+000
      vertex  9.000000e+000  3.023900e-001  1.520217e+000
      vertex  9.000000e+000  1.800204e+000  1.510551e+000
    endloop
  endfacet
  facet normal  1.000000e+000  0.000000e+000  0.000000e+000
    outer loop
      vertex  9.000000e+000  9.491013e-017  1.550000e+000
      vertex  9.000000e+000  1.800204e+000  1.510551e+000
      vertex  9.000000e+000  1.510551e+000  1.800204e+000
    endloop
  endfacet
  facet normal  1.000000e+000  0.000000e+000  0.000000e+000
    outer loop
      vertex  9.000000e+000  9.491013e-017  1.550000e+000
      vertex  9.000000e+000  1.510551e+000  1.800204e+000
      vertex  9.000000e+000  1.175000e+000  2.035160e+000
    endloop
  endfacet
  facet normal  1.000000e+000  0.000000e+000  0.000000e+000
    outer loop
      vertex  9.000000e+000  9.491013e-017  1.550000e+000
      vertex  9.000000e+000  1.175000e+000  2.035160e+000
      vertex  9.000000e+000  8.037474e-001  2.208278e+000
    endloop
  endfacet
  facet normal  1.000000e+000  0.000000e+000  0.000000e+000
    outer loop
      vertex  9.000000e+000  9.491013e-017  1.550000e+000
      vertex  9.000000e+000  8.037474e-001  2.208278e+000
      vertex  9.000000e+000  4.080732e-001  2.314298e+000
    endloop
  endfacet
  facet normal  1.000000e+000  0.000000e+000  0.000000e+000
    outer loop
      vertex  9.000000e+000  9.491013e-017  1.550000e+000
      vertex  9.000000e+000  4.080732e-001  2.314298e+000
      vertex  9.000000e+000  1.438960e-016  2.350000e+000
    endloop
  endfacet
  facet normal  1.000000e+000  0.000000e+000  0.000000e+000
    outer loop
      vertex  9.000000e+000  9.491013e-017  1.550000e+000
      vertex  9.000000e+000  1.438960e-016  2.350000e+000
      vertex  9.000000e+000 -4.080732e-001  2.314298e+000
    endloop
  endfacet
  facet normal  1.000000e+000  0.000000e+000  0.000000e+000
    outer loop
      vertex  9.000000e+000  9.491013e-017  1.550000e+000
      vertex  9.000000e+000 -4.080732e-001  2.314298e+000
      vertex  9.000000e+000 -8.037474e-001  2.208278e+000
    endloop
  endfacet
  facet normal  1.000000e+000  0.000000e+000  0.000000e+000
    outer loop
      vertex  9.000000e+000  9.491013e-017  1.550000e+000
      vertex  9.000000e+000 -8.037474e-001  2.208278e+000
      vertex  9.000000e+000 -1.175000e+000  2.035160e+000
    endloop
  endfacet
  facet normal  1.000000e+000  0.000000e+000  0.000000e+000
    outer loop
      vertex  9.000000e+000  9.491013e-017  1.550000e+000
      vertex  9.000000e+000 -1.175000e+000  2.035160e+000
      vertex  9.000000e+000 -1.510551e+000  1.800204e+000
    endloop
  endfacet
  facet normal  1.000000e+000  0.000000e+000  0.000000e+000
    outer loop
      vertex  9.000000e+000  9.491013e-017  1.550000e+000
      vertex  9.000000e+000 -1.510551e+000  1.800204e+000
      vertex  9.000000e+000 -1.800204e+000  1.510551e+000
    endloop
  endfacet
  facet normal  9.999999e-001  0.000000e+000  0.000000e+000
    outer loop
      vertex  9.000000e+000  9.491013e-017  1.550000e+000
      vertex  9.000000e+000 -1.800204e+000  1.510551e+000
      vertex  9.000000e+000 -3.023900e-001  1.520217e+000
    endloop
  endfacet
  facet normal  1.000000e+000  0.000000e+000  -0.000000e+000
    outer loop
      vertex  9.000000e+000 -2.518907e-015 -2.350000e+000
      vertex  9.000000e+000  4.080732e-001 -2.314298e+000
      vertex  9.000000e+000  8.037474e-001 -2.208278e+000
    endloop
  endfacet
  facet normal  1.000000e+000  0.000000e+000  -0.000000e+000
    outer loop
      vertex  9.000000e+000 -2.518907e-015 -2.350000e+000
      vertex  9.000000e+000  8.037474e-001 -2.208278e+000
      vertex  9.000000e+000  1.175000e+000 -2.035160e+000
    endloop
  endfacet
  facet normal  1.000000e+000  0.000000e+000  -0.000000e+000
    outer loop
      vertex  9.000000e+000 -2.518907e-015 -2.350000e+000
      vertex  9.000000e+000  1.175000e+000 -2.035160e+000
      vertex  9.000000e+000  1.510551e+000 -1.800204e+000
    endloop
  endfacet
  facet normal  1.000000e+000  0.000000e+000  0.000000e+000
    outer loop
      vertex  9.000000e+000 -2.518907e-015 -2.350000e+000
      vertex  9.000000e+000  1.510551e+000 -1.800204e+000
      vertex  9.000000e+000 -2.847304e-016 -1.550000e+000
    endloop
  endfacet
  facet normal  1.000000e+000  0.000000e+000  0.000000e+000
    outer loop
      vertex  9.000000e+000 -2.518907e-015 -2.350000e+000
      vertex  9.000000e+000 -2.847304e-016 -1.550000e+000
      vertex  9.000000e+000 -1.510551e+000 -1.800204e+000
    endloop
  endfacet
  facet normal  1.000000e+000  0.000000e+000  0.000000e+000
    outer loop
      vertex  9.000000e+000 -2.518907e-015 -2.350000e+000
      vertex  9.000000e+000 -1.510551e+000 -1.800204e+000
      vertex  9.000000e+000 -1.175000e+000 -2.035160e+000
    endloop
  endfacet
  facet normal  1.000000e+000  0.000000e+000  0.000000e+000
    outer loop
      vertex  9.000000e+000 -2.518907e-015 -2.350000e+000
      vertex  9.000000e+000 -1.175000e+000 -2.035160e+000
      vertex  9.000000e+000 -8.037474e-001 -2.208278e+000
    endloop
  endfacet
  facet normal  9.999999e-001  0.000000e+000  0.000000e+000
    outer loop
      vertex  9.000000e+000 -2.518907e-015 -2.350000e+000
      vertex  9.000000e+000 -8.037474e-001 -2.208278e+000
      vertex  9.000000e+000 -4.080732e-001 -2.314298e+000
    endloop
  endfacet
  facet normal  1.000000e+000  -0.000000e+000  0.000000e+000
    outer loop
      vertex  9.000000e+000 -3.023900e-001  1.520217e+000
      vertex  9.000000e+000 -1.800204e+000  1.510551e+000
      vertex  9.000000e+000 -5.931593e-001  1.432013e+000
    endloop
  endfacet
  facet normal  1.000000e+000  0.000000e+000  0.000000e+000
    outer loop
      vertex  9.000000e+000 -5.931593e-001  1.432013e+000
      vertex  9.000000e+000 -1.800204e+000  1.510551e+000
      vertex  9.000000e+000 -2.035160e+000  1.175000e+000
    endloop
  endfacet
  facet normal  1.000000e+000  0.000000e+000  0.000000e+000
    outer loop
      vertex  9.000000e+000 -5.931593e-001  1.432013e+000
      vertex  9.000000e+000 -2.035160e+000  1.175000e+000
      vertex  9.000000e+000 -8.611339e-001  1.288778e+000
    endloop
  endfacet
  facet normal  9.999999e-001  0.000000e+000  0.000000e+000
    outer loop
      vertex  9.000000e+000 -1.096015e+000  1.096015e+000
      vertex  9.000000e+000 -2.035160e+000  1.175000e+000
      vertex  9.000000e+000 -1.288778e+000  8.611339e-001
    endloop
  endfacet
  facet normal  1.000000e+000  0.000000e+000  0.000000e+000
    outer loop
      vertex  9.000000e+000 -1.288778e+000  8.611339e-001
      vertex  9.000000e+000 -2.035160e+000  1.175000e+000
      vertex  9.000000e+000 -2.208278e+000  8.037474e-001
    endloop
  endfacet
  facet normal  1.000000e+000  -0.000000e+000  0.000000e+000
    outer loop
      vertex  9.000000e+000 -1.288778e+000  8.611339e-001
      vertex  9.000000e+000 -2.208278e+000  8.037474e-001
      vertex  9.000000e+000 -1.432013e+000  5.931593e-001
    endloop
  endfacet
  facet normal  9.999999e-001  0.000000e+000  0.000000e+000
    outer loop
      vertex  9.000000e+000 -1.432013e+000  5.931593e-001
      vertex  9.000000e+000 -2.208278e+000  8.037474e-001
      vertex  9.000000e+000 -2.314298e+000  4.080732e-001
    endloop
  endfacet
  facet normal  9.999999e-001  -0.000000e+000  0.000000e+000
    outer loop
      vertex  9.000000e+000 -1.432013e+000  5.931593e-001
      vertex  9.000000e+000 -2.314298e+000  4.080732e-001
      vertex  9.000000e+000 -1.520217e+000  3.023900e-001
    endloop
  endfacet
  facet normal  9.999999e-001  0.000000e+000  0.000000e+000
    outer loop
      vertex  9.000000e+000 -1.520217e+000  3.023900e-001
      vertex  9.000000e+000 -2.314298e+000  4.080732e-001
      vertex  9.000000e+000 -1.550000e+000  1.898203e-016
    endloop
  endfacet
  facet normal  1.000000e+000  0.000000e+000  0.000000e+000
    outer loop
      vertex  9.000000e+000 -1.550000e+000  1.898203e-016
      vertex  9.000000e+000 -2.314298e+000  4.080732e-001
      vertex  9.000000e+000 -2.350000e+000  2.877920e-016
    endloop
  endfacet
  facet normal  1.000000e+000  0.000000e+000  0.000000e+000
    outer loop
      vertex  9.000000e+000 -1.550000e+000  1.898203e-016
      vertex  9.000000e+000 -2.350000e+000  2.877920e-016
      vertex  9.000000e+000 -1.520217e+000 -3.023900e-001
    endloop
  endfacet
  facet normal  1.000000e+000  0.000000e+000  0.000000e+000
    outer loop
      vertex  9.000000e+000 -1.520217e+000 -3.023900e-001
      vertex  9.000000e+000 -2.350000e+000  2.877920e-016
      vertex  9.000000e+000 -2.314298e+000 -4.080732e-001
    endloop
  endfacet
  facet normal  9.999999e-001  -0.000000e+000  0.000000e+000
    outer loop
      vertex  9.000000e+000 -1.520217e+000 -3.023900e-001
      vertex  9.000000e+000 -2.314298e+000 -4.080732e-001
      vertex  9.000000e+000 -1.432013e+000 -5.931593e-001
    endloop
  endfacet
  facet normal  9.999999e-001  0.000000e+000  0.000000e+000
    outer loop
      vertex  9.000000e+000 -1.432013e+000 -5.931593e-001
      vertex  9.000000e+000 -2.314298e+000 -4.080732e-001
      vertex  9.000000e+000 -2.208278e+000 -8.037474e-001
    endloop
  endfacet
  facet normal  1.000000e+000  -0.000000e+000  0.000000e+000
    outer loop
      vertex  9.000000e+000 -1.432013e+000 -5.931593e-001
      vertex  9.000000e+000 -2.208278e+000 -8.037474e-001
      vertex  9.000000e+000 -1.288778e+000 -8.611339e-001
    endloop
  endfacet
  facet normal  1.000000e+000  0.000000e+000  0.000000e+000
    outer loop
      vertex  9.000000e+000 -1.288778e+000 -8.611339e-001
      vertex  9.000000e+000 -2.208278e+000 -8.037474e-001
      vertex  9.000000e+000 -1.096015e+000 -1.096015e+000
    endloop
  endfacet
  facet normal  1.000000e+000  0.000000e+000  0.000000e+000
    outer loop
      vertex  9.000000e+000 -1.096015e+000 -1.096015e+000
      vertex  9.000000e+000 -2.208278e+000 -8.037474e-001
      vertex  9.000000e+000 -2.035160e+000 -1.175000e+000
    endloop
  endfacet
  facet normal  1.000000e+000  -0.000000e+000  0.000000e+000
    outer loop
      vertex  9.000000e+000 -1.096015e+000 -1.096015e+000
      vertex  9.000000e+000 -2.035160e+000 -1.175000e+000
      vertex  9.000000e+000 -8.611339e-001 -1.288778e+000
    endloop
  endfacet
  facet normal  1.000000e+000  0.000000e+000  0.000000e+000
    outer loop
      vertex  9.000000e+000 -8.611339e-001 -1.288778e+000
      vertex  9.000000e+000 -2.035160e+000 -1.175000e+000
      vertex  9.000000e+000 -1.800204e+000 -1.510551e+000
    endloop
  endfacet
  facet normal  1.000000e+000  0.000000e+000  0.000000e+000
    outer loop
      vertex  9.000000e+000 -8.611339e-001 -1.288778e+000
      vertex  9.000000e+000 -1.800204e+000 -1.510551e+000
      vertex  9.000000e+000 -5.931593e-001 -1.432013e+000
    endloop
  endfacet
  facet normal  1.000000e+000  0.000000e+000  0.000000e+000
    outer loop
      vertex  9.000000e+000 -1.510551e+000 -1.800204e+000
      vertex  9.000000e+000 -2.847304e-016 -1.550000e+000
      vertex  9.000000e+000 -1.800204e+000 -1.510551e+000
    endloop
  endfacet
  facet normal  9.999999e-001  0.000000e+000  0.000000e+000
    outer loop
      vertex  9.000000e+000 -1.800204e+000 -1.510551e+000
      vertex  9.000000e+000 -2.847304e-016 -1.550000e+000
      vertex  9.000000e+000 -3.023900e-001 -1.520217e+000
    endloop
  endfacet
  facet normal  1.000000e+000  0.000000e+000  0.000000e+000
    outer loop
      vertex  9.000000e+000 -1.800204e+000 -1.510551e+000
      vertex  9.000000e+000 -3.023900e-001 -1.520217e+000
      vertex  9.000000e+000 -5.931593e-001 -1.432013e+000
    endloop
  endfacet
  facet normal  1.000000e+000  0.000000e+000  0.000000e+000
    outer loop
      vertex  9.000000e+000  1.800204e+000  1.510551e+000
      vertex  9.000000e+000  3.023900e-001  1.520217e+000
      vertex  9.000000e+000  2.035160e+000  1.175000e+000
    endloop
  endfacet
  facet normal  1.000000e+000  0.000000e+000  0.000000e+000
    outer loop
      vertex  9.000000e+000  2.035160e+000  1.175000e+000
      vertex  9.000000e+000  3.023900e-001  1.520217e+000
      vertex  9.000000e+000  5.931593e-001  1.432013e+000
    endloop
  endfacet
  facet normal  1.000000e+000  0.000000e+000  0.000000e+000
    outer loop
      vertex  9.000000e+000  2.035160e+000  1.175000e+000
      vertex  9.000000e+000  5.931593e-001  1.432013e+000
      vertex  9.000000e+000  8.611339e-001  1.288778e+000
    endloop
  endfacet
  facet normal  1.000000e+000  -0.000000e+000  0.000000e+000
    outer loop
      vertex  9.000000e+000  2.035160e+000  1.175000e+000
      vertex  9.000000e+000  1.096015e+000  1.096015e+000
      vertex  9.000000e+000  2.208278e+000  8.037474e-001
    endloop
  endfacet
  facet normal  1.000000e+000  0.000000e+000  0.000000e+000
    outer loop
      vertex  9.000000e+000  2.208278e+000  8.037474e-001
      vertex  9.000000e+000  1.096015e+000  1.096015e+000
      vertex  9.000000e+000  1.288778e+000  8.611339e-001
    endloop
  endfacet
  facet normal  1.000000e+000  0.000000e+000  0.000000e+000
    outer loop
      vertex  9.000000e+000  2.208278e+000  8.037474e-001
      vertex  9.000000e+000  1.288778e+000  8.611339e-001
      vertex  9.000000e+000  2.314298e+000  4.080732e-001
    endloop
  endfacet
  facet normal  1.000000e+000  0.000000e+000  0.000000e+000
    outer loop
      vertex  9.000000e+000  2.314298e+000  4.080732e-001
      vertex  9.000000e+000  1.288778e+000  8.611339e-001
      vertex  9.000000e+000  1.432013e+000  5.931593e-001
    endloop
  endfacet
  facet normal  9.999999e-001  0.000000e+000  0.000000e+000
    outer loop
      vertex  9.000000e+000  2.314298e+000  4.080732e-001
      vertex  9.000000e+000  1.432013e+000  5.931593e-001
      vertex  9.000000e+000  1.520217e+000  3.023900e-001
    endloop
  endfacet
  facet normal  1.000000e+000  -0.000000e+000  0.000000e+000
    outer loop
      vertex  9.000000e+000  2.314298e+000  4.080732e-001
      vertex  9.000000e+000  1.520217e+000  3.023900e-001
      vertex  9.000000e+000  2.350000e+000 -5.755840e-016
    endloop
  endfacet
  facet normal  1.000000e+000  0.000000e+000  0.000000e+000
    outer loop
      vertex  9.000000e+000  2.350000e+000 -5.755840e-016
      vertex  9.000000e+000  1.520217e+000  3.023900e-001
      vertex  9.000000e+000  1.550000e+000  0.000000e+000
    endloop
  endfacet
  facet normal  1.000000e+000  0.000000e+000  0.000000e+000
    outer loop
      vertex  9.000000e+000  2.350000e+000 -5.755840e-016
      vertex  9.000000e+000  1.550000e+000  0.000000e+000
      vertex  9.000000e+000  2.314298e+000 -4.080732e-001
    endloop
  endfacet
  facet normal  9.999999e-001  0.000000e+000  0.000000e+000
    outer loop
      vertex  9.000000e+000  2.314298e+000 -4.080732e-001
      vertex  9.000000e+000  1.550000e+000  0.000000e+000
      vertex  9.000000e+000  1.520217e+000 -3.023900e-001
    endloop
  endfacet
  facet normal  1.000000e+000  0.000000e+000  0.000000e+000
    outer loop
      vertex  9.000000e+000  2.314298e+000 -4.080732e-001
      vertex  9.000000e+000  1.520217e+000 -3.023900e-001
      vertex  9.000000e+000  2.208278e+000 -8.037474e-001
    endloop
  endfacet
  facet normal  1.000000e+000  0.000000e+000  0.000000e+000
    outer loop
      vertex  9.000000e+000  2.208278e+000 -8.037474e-001
      vertex  9.000000e+000  1.520217e+000 -3.023900e-001
      vertex  9.000000e+000  1.432013e+000 -5.931593e-001
    endloop
  endfacet
  facet normal  1.000000e+000  0.000000e+000  0.000000e+000
    outer loop
      vertex  9.000000e+000  2.208278e+000 -8.037474e-001
      vertex  9.000000e+000  1.432013e+000 -5.931593e-001
      vertex  9.000000e+000  1.288778e+000 -8.611339e-001
    endloop
  endfacet
  facet normal  1.000000e+000  -0.000000e+000  0.000000e+000
    outer loop
      vertex  9.000000e+000  2.208278e+000 -8.037474e-001
      vertex  9.000000e+000  1.288778e+000 -8.611339e-001
      vertex  9.000000e+000  2.035160e+000 -1.175000e+000
    endloop
  endfacet
  facet normal  9.999999e-001  0.000000e+000  0.000000e+000
    outer loop
      vertex  9.000000e+000  2.035160e+000 -1.175000e+000
      vertex  9.000000e+000  1.288778e+000 -8.611339e-001
      vertex  9.000000e+000  1.096015e+000 -1.096015e+000
    endloop
  endfacet
  facet normal  9.999999e-001  0.000000e+000  0.000000e+000
    outer loop
      vertex  9.000000e+000  2.035160e+000 -1.175000e+000
      vertex  9.000000e+000  1.096015e+000 -1.096015e+000
      vertex  9.000000e+000  1.800204e+000 -1.510551e+000
    endloop
  endfacet
  facet normal  1.000000e+000  0.000000e+000  0.000000e+000
    outer loop
      vertex  9.000000e+000  1.800204e+000 -1.510551e+000
      vertex  9.000000e+000  1.096015e+000 -1.096015e+000
      vertex  9.000000e+000  8.611339e-001 -1.288778e+000
    endloop
  endfacet
  facet normal  1.000000e+000  0.000000e+000  0.000000e+000
    outer loop
      vertex  9.000000e+000  1.800204e+000 -1.510551e+000
      vertex  9.000000e+000  8.611339e-001 -1.288778e+000
      vertex  9.000000e+000  5.931593e-001 -1.432013e+000
    endloop
  endfacet
  facet normal  1.000000e+000  0.000000e+000  0.000000e+000
    outer loop
      vertex  9.000000e+000 -2.847304e-016 -1.550000e+000
      vertex  9.000000e+000  1.510551e+000 -1.800204e+000
      vertex  9.000000e+000  3.023900e-001 -1.520217e+000
    endloop
  endfacet
  facet normal  1.000000e+000  -0.000000e+000  0.000000e+000
    outer loop
      vertex  9.000000e+000  3.023900e-001 -1.520217e+000
      vertex  9.000000e+000  1.510551e+000 -1.800204e+000
      vertex  9.000000e+000  1.800204e+000 -1.510551e+000
    endloop
  endfacet
  facet normal  1.000000e+000  0.000000e+000  0.000000e+000
    outer loop
      vertex  9.000000e+000  3.023900e-001 -1.520217e+000
      vertex  9.000000e+000  1.800204e+000 -1.510551e+000
      vertex  9.000000e+000  5.931593e-001 -1.432013e+000
    endloop
  endfacet
  facet normal -1.000000e+000  0.000000e+000  0.000000e+000
    outer loop
      vertex  0.000000e+000 -1.096015e+000  1.096015e+000
      vertex  0.000000e+000 -2.035160e+000  1.175000e+000
      vertex  0.000000e+000 -8.611339e-001  1.288778e+000
    endloop
  endfacet
  facet normal -1.000000e+000  0.000000e+000  0.000000e+000
    outer loop
      vertex  0.000000e+000  2.035160e+000  1.175000e+000
      vertex  0.000000e+000  1.096015e+000  1.096015e+000
      vertex  0.000000e+000  8.611339e-001  1.288778e+000
    endloop
  endfacet
  facet normal -9.999999e-001  -0.000000e+000  0.000000e+000
    outer loop
      vertex  0.000000e+000  9.491013e-017  1.550000e+000
      vertex  0.000000e+000 -3.023900e-001  1.520217e+000
      vertex  0.000000e+000 -1.800204e+000  1.510551e+000
    endloop
  endfacet
  facet normal -1.000000e+000  0.000000e+000  0.000000e+000
    outer loop
      vertex  0.000000e+000  9.491013e-017  1.550000e+000
      vertex  0.000000e+000 -1.800204e+000  1.510551e+000
      vertex  0.000000e+000 -1.510551e+000  1.800204e+000
    endloop
  endfacet
  facet normal -1.000000e+000  0.000000e+000  0.000000e+000
    outer loop
      vertex  0.000000e+000  9.491013e-017  1.550000e+000
      vertex  0.000000e+000 -1.510551e+000  1.800204e+000
      vertex  0.000000e+000 -1.175000e+000  2.035160e+000
    endloop
  endfacet
  facet normal -1.000000e+000  0.000000e+000  0.000000e+000
    outer loop
      vertex  0.000000e+000  9.491013e-017  1.550000e+000
      vertex  0.000000e+000 -1.175000e+000  2.035160e+000
      vertex  0.000000e+000 -8.037474e-001  2.208278e+000
    endloop
  endfacet
  facet normal -1.000000e+000  0.000000e+000  0.000000e+000
    outer loop
      vertex  0.000000e+000  9.491013e-017  1.550000e+000
      vertex  0.000000e+000 -8.037474e-001  2.208278e+000
      vertex  0.000000e+000 -4.080732e-001  2.314298e+000
    endloop
  endfacet
  facet normal -1.000000e+000  0.000000e+000  0.000000e+000
    outer loop
      vertex  0.000000e+000  9.491013e-017  1.550000e+000
      vertex  0.000000e+000 -4.080732e-001  2.314298e+000
      vertex  0.000000e+000  1.438960e-016  2.350000e+000
    endloop
  endfacet
  facet normal -1.000000e+000  0.000000e+000  -0.000000e+000
    outer loop
      vertex  0.000000e+000  9.491013e-017  1.550000e+000
      vertex  0.000000e+000  1.438960e-016  2.350000e+000
      vertex  0.000000e+000  4.080732e-001  2.314298e+000
    endloop
  endfacet
  facet normal -1.000000e+000  0.000000e+000  -0.000000e+000
    outer loop
      vertex  0.000000e+000  9.491013e-017  1.550000e+000
      vertex  0.000000e+000  4.080732e-001  2.314298e+000
      vertex  0.000000e+000  8.037474e-001  2.208278e+000
    endloop
  endfacet
  facet normal -1.000000e+000  0.000000e+000  -0.000000e+000
    outer loop
      vertex  0.000000e+000  9.491013e-017  1.550000e+000
      vertex  0.000000e+000  8.037474e-001  2.208278e+000
      vertex  0.000000e+000  1.175000e+000  2.035160e+000
    endloop
  endfacet
  facet normal -1.000000e+000  0.000000e+000  -0.000000e+000
    outer loop
      vertex  0.000000e+000  9.491013e-017  1.550000e+000
      vertex  0.000000e+000  1.175000e+000  2.035160e+000
      vertex  0.000000e+000  1.510551e+000  1.800204e+000
    endloop
  endfacet
  facet normal -1.000000e+000  0.000000e+000  -0.000000e+000
    outer loop
      vertex  0.000000e+000  9.491013e-017  1.550000e+000
      vertex  0.000000e+000  1.510551e+000  1.800204e+000
      vertex  0.000000e+000  1.800204e+000  1.510551e+000
    endloop
  endfacet
  facet normal -9.999999e-001  0.000000e+000  0.000000e+000
    outer loop
      vertex  0.000000e+000  9.491013e-017  1.550000e+000
      vertex  0.000000e+000  1.800204e+000  1.510551e+000
      vertex  0.000000e+000  3.023900e-001  1.520217e+000
    endloop
  endfacet
  facet normal -1.000000e+000  0.000000e+000  0.000000e+000
    outer loop
      vertex  0.000000e+000 -2.518907e-015 -2.350000e+000
      vertex  0.000000e+000 -4.080732e-001 -2.314298e+000
      vertex  0.000000e+000 -8.037474e-001 -2.208278e+000
    endloop
  endfacet
  facet normal -1.000000e+000  0.000000e+000  0.000000e+000
    outer loop
      vertex  0.000000e+000 -2.518907e-015 -2.350000e+000
      vertex  0.000000e+000 -8.037474e-001 -2.208278e+000
      vertex  0.000000e+000 -1.175000e+000 -2.035160e+000
    endloop
  endfacet
  facet normal -1.000000e+000  0.000000e+000  0.000000e+000
    outer loop
      vertex  0.000000e+000 -2.518907e-015 -2.350000e+000
      vertex  0.000000e+000 -1.175000e+000 -2.035160e+000
      vertex  0.000000e+000 -1.510551e+000 -1.800204e+000
    endloop
  endfacet
  facet normal -1.000000e+000  0.000000e+000  0.000000e+000
    outer loop
      vertex  0.000000e+000 -2.518907e-015 -2.350000e+000
      vertex  0.000000e+000 -1.510551e+000 -1.800204e+000
      vertex  0.000000e+000 -2.847304e-016 -1.550000e+000
    endloop
  endfacet
  facet normal -1.000000e+000  0.000000e+000  -0.000000e+000
    outer loop
      vertex  0.000000e+000 -2.518907e-015 -2.350000e+000
      vertex  0.000000e+000 -2.847304e-016 -1.550000e+000
      vertex  0.000000e+000  1.510551e+000 -1.800204e+000
    endloop
  endfacet
  facet normal -1.000000e+000  0.000000e+000  0.000000e+000
    outer loop
      vertex  0.000000e+000 -2.518907e-015 -2.350000e+000
      vertex  0.000000e+000  1.510551e+000 -1.800204e+000
      vertex  0.000000e+000  1.175000e+000 -2.035160e+000
    endloop
  endfacet
  facet normal -1.000000e+000  0.000000e+000  0.000000e+000
    outer loop
      vertex  0.000000e+000 -2.518907e-015 -2.350000e+000
      vertex  0.000000e+000  1.175000e+000 -2.035160e+000
      vertex  0.000000e+000  8.037474e-001 -2.208278e+000
    endloop
  endfacet
  facet normal -9.999999e-001  0.000000e+000  0.000000e+000
    outer loop
      vertex  0.000000e+000 -2.518907e-015 -2.350000e+000
      vertex  0.000000e+000  8.037474e-001 -2.208278e+000
      vertex  0.000000e+000  4.080732e-001 -2.314298e+000
    endloop
  endfacet
  facet normal -1.000000e+000  0.000000e+000  0.000000e+000
    outer loop
      vertex  0.000000e+000 -8.611339e-001  1.288778e+000
      vertex  0.000000e+000 -2.035160e+000  1.175000e+000
      vertex  0.000000e+000 -5.931593e-001  1.432013e+000
    endloop
  endfacet
  facet normal -1.000000e+000  -0.000000e+000  0.000000e+000
    outer loop
      vertex  0.000000e+000 -5.931593e-001  1.432013e+000
      vertex  0.000000e+000 -2.035160e+000  1.175000e+000
      vertex  0.000000e+000 -1.800204e+000  1.510551e+000
    endloop
  endfacet
  facet normal -1.000000e+000  0.000000e+000  0.000000e+000
    outer loop
      vertex  0.000000e+000 -5.931593e-001  1.432013e+000
      vertex  0.000000e+000 -1.800204e+000  1.510551e+000
      vertex  0.000000e+000 -3.023900e-001  1.520217e+000
    endloop
  endfacet
  facet normal -9.999999e-001  0.000000e+000  0.000000e+000
    outer loop
      vertex  0.000000e+000 -1.520217e+000  3.023900e-001
      vertex  0.000000e+000 -2.314298e+000  4.080732e-001
      vertex  0.000000e+000 -1.432013e+000  5.931593e-001
    endloop
  endfacet
  facet normal -9.999999e-001  -0.000000e+000  0.000000e+000
    outer loop
      vertex  0.000000e+000 -1.432013e+000  5.931593e-001
      vertex  0.000000e+000 -2.314298e+000  4.080732e-001
      vertex  0.000000e+000 -2.208278e+000  8.037474e-001
    endloop
  endfacet
  facet normal -1.000000e+000  0.000000e+000  0.000000e+000
    outer loop
      vertex  0.000000e+000 -1.432013e+000  5.931593e-001
      vertex  0.000000e+000 -2.208278e+000  8.037474e-001
      vertex  0.000000e+000 -1.288778e+000  8.611339e-001
    endloop
  endfacet
  facet normal -1.000000e+000  -0.000000e+000  0.000000e+000
    outer loop
      vertex  0.000000e+000 -1.288778e+000  8.611339e-001
      vertex  0.000000e+000 -2.208278e+000  8.037474e-001
      vertex  0.000000e+000 -2.035160e+000  1.175000e+000
    endloop
  endfacet
  facet normal -9.999999e-001  0.000000e+000  0.000000e+000
    outer loop
      vertex  0.000000e+000 -1.288778e+000  8.611339e-001
      vertex  0.000000e+000 -2.035160e+000  1.175000e+000
      vertex  0.000000e+000 -1.096015e+000  1.096015e+000
    endloop
  endfacet
  facet normal -1.000000e+000  0.000000e+000  0.000000e+000
    outer loop
      vertex  0.000000e+000 -1.288778e+000 -8.611339e-001
      vertex  0.000000e+000 -2.208278e+000 -8.037474e-001
      vertex  0.000000e+000 -1.432013e+000 -5.931593e-001
    endloop
  endfacet
  facet normal -9.999999e-001  -0.000000e+000  0.000000e+000
    outer loop
      vertex  0.000000e+000 -1.432013e+000 -5.931593e-001
      vertex  0.000000e+000 -2.208278e+000 -8.037474e-001
      vertex  0.000000e+000 -2.314298e+000 -4.080732e-001
    endloop
  endfacet
  facet normal -9.999999e-001  0.000000e+000  0.000000e+000
    outer loop
      vertex  0.000000e+000 -1.432013e+000 -5.931593e-001
      vertex  0.000000e+000 -2.314298e+000 -4.080732e-001
      vertex  0.000000e+000 -1.520217e+000 -3.023900e-001
    endloop
  endfacet
  facet normal -1.000000e+000  -0.000000e+000  0.000000e+000
    outer loop
      vertex  0.000000e+000 -1.520217e+000 -3.023900e-001
      vertex  0.000000e+000 -2.314298e+000 -4.080732e-001
      vertex  0.000000e+000 -2.350000e+000  2.877920e-016
    endloop
  endfacet
  facet normal -1.000000e+000  0.000000e+000  0.000000e+000
    outer loop
      vertex  0.000000e+000 -1.520217e+000 -3.023900e-001
      vertex  0.000000e+000 -2.350000e+000  2.877920e-016
      vertex  0.000000e+000 -1.550000e+000  1.898203e-016
    endloop
  endfacet
  facet normal -1.000000e+000  0.000000e+000  0.000000e+000
    outer loop
      vertex  0.000000e+000 -1.550000e+000  1.898203e-016
      vertex  0.000000e+000 -2.350000e+000  2.877920e-016
      vertex  0.000000e+000 -2.314298e+000  4.080732e-001
    endloop
  endfacet
  facet normal -9.999999e-001  0.000000e+000  0.000000e+000
    outer loop
      vertex  0.000000e+000 -1.550000e+000  1.898203e-016
      vertex  0.000000e+000 -2.314298e+000  4.080732e-001
      vertex  0.000000e+000 -1.520217e+000  3.023900e-001
    endloop
  endfacet
  facet normal -1.000000e+000  0.000000e+000  0.000000e+000
    outer loop
      vertex  0.000000e+000 -5.931593e-001 -1.432013e+000
      vertex  0.000000e+000 -1.800204e+000 -1.510551e+000
      vertex  0.000000e+000 -8.611339e-001 -1.288778e+000
    endloop
  endfacet
  facet normal -1.000000e+000  -0.000000e+000  0.000000e+000
    outer loop
      vertex  0.000000e+000 -8.611339e-001 -1.288778e+000
      vertex  0.000000e+000 -1.800204e+000 -1.510551e+000
      vertex  0.000000e+000 -2.035160e+000 -1.175000e+000
    endloop
  endfacet
  facet normal -1.000000e+000  0.000000e+000  0.000000e+000
    outer loop
      vertex  0.000000e+000 -8.611339e-001 -1.288778e+000
      vertex  0.000000e+000 -2.035160e+000 -1.175000e+000
      vertex  0.000000e+000 -1.096015e+000 -1.096015e+000
    endloop
  endfacet
  facet normal -1.000000e+000  -0.000000e+000  0.000000e+000
    outer loop
      vertex  0.000000e+000 -1.096015e+000 -1.096015e+000
      vertex  0.000000e+000 -2.035160e+000 -1.175000e+000
      vertex  0.000000e+000 -2.208278e+000 -8.037474e-001
    endloop
  endfacet
  facet normal -1.000000e+000  0.000000e+000  0.000000e+000
    outer loop
      vertex  0.000000e+000 -1.096015e+000 -1.096015e+000
      vertex  0.000000e+000 -2.208278e+000 -8.037474e-001
      vertex  0.000000e+000 -1.288778e+000 -8.611339e-001
    endloop
  endfacet
  facet normal -1.000000e+000  0.000000e+000  0.000000e+000
    outer loop
      vertex  0.000000e+000 -5.931593e-001 -1.432013e+000
      vertex  0.000000e+000 -3.023900e-001 -1.520217e+000
      vertex  0.000000e+000 -1.800204e+000 -1.510551e+000
    endloop
  endfacet
  facet normal -9.999999e-001  0.000000e+000  0.000000e+000
    outer loop
      vertex  0.000000e+000 -1.800204e+000 -1.510551e+000
      vertex  0.000000e+000 -3.023900e-001 -1.520217e+000
      vertex  0.000000e+000 -2.847304e-016 -1.550000e+000
    endloop
  endfacet
  facet normal -1.000000e+000  -0.000000e+000  0.000000e+000
    outer loop
      vertex  0.000000e+000 -1.800204e+000 -1.510551e+000
      vertex  0.000000e+000 -2.847304e-016 -1.550000e+000
      vertex  0.000000e+000 -1.510551e+000 -1.800204e+000
    endloop
  endfacet
  facet normal -1.000000e+000  0.000000e+000  0.000000e+000
    outer loop
      vertex  0.000000e+000  8.611339e-001  1.288778e+000
      vertex  0.000000e+000  5.931593e-001  1.432013e+000
      vertex  0.000000e+000  2.035160e+000  1.175000e+000
    endloop
  endfacet
  facet normal -1.000000e+000  0.000000e+000  0.000000e+000
    outer loop
      vertex  0.000000e+000  2.035160e+000  1.175000e+000
      vertex  0.000000e+000  5.931593e-001  1.432013e+000
      vertex  0.000000e+000  3.023900e-001  1.520217e+000
    endloop
  endfacet
  facet normal -1.000000e+000  0.000000e+000  0.000000e+000
    outer loop
      vertex  0.000000e+000  2.035160e+000  1.175000e+000
      vertex  0.000000e+000  3.023900e-001  1.520217e+000
      vertex  0.000000e+000  1.800204e+000  1.510551e+000
    endloop
  endfacet
  facet normal -9.999999e-001  0.000000e+000  0.000000e+000
    outer loop
      vertex  0.000000e+000  1.520217e+000  3.023900e-001
      vertex  0.000000e+000  1.432013e+000  5.931593e-001
      vertex  0.000000e+000  2.314298e+000  4.080732e-001
    endloop
  endfacet
  facet normal -1.000000e+000  0.000000e+000  0.000000e+000
    outer loop
      vertex  0.000000e+000  2.314298e+000  4.080732e-001
      vertex  0.000000e+000  1.432013e+000  5.931593e-001
      vertex  0.000000e+000  1.288778e+000  8.611339e-001
    endloop
  endfacet
  facet normal -1.000000e+000  0.000000e+000  0.000000e+000
    outer loop
      vertex  0.000000e+000  2.314298e+000  4.080732e-001
      vertex  0.000000e+000  1.288778e+000  8.611339e-001
      vertex  0.000000e+000  2.208278e+000  8.037474e-001
    endloop
  endfacet
  facet normal -1.000000e+000  0.000000e+000  0.000000e+000
    outer loop
      vertex  0.000000e+000  2.208278e+000  8.037474e-001
      vertex  0.000000e+000  1.288778e+000  8.611339e-001
      vertex  0.000000e+000  1.096015e+000  1.096015e+000
    endloop
  endfacet
  facet normal -1.000000e+000  0.000000e+000  0.000000e+000
    outer loop
      vertex  0.000000e+000  2.208278e+000  8.037474e-001
      vertex  0.000000e+000  1.096015e+000  1.096015e+000
      vertex  0.000000e+000  2.035160e+000  1.175000e+000
    endloop
  endfacet
  facet normal -1.000000e+000  0.000000e+000  -0.000000e+000
    outer loop
      vertex  0.000000e+000  1.288778e+000 -8.611339e-001
      vertex  0.000000e+000  1.432013e+000 -5.931593e-001
      vertex  0.000000e+000  2.208278e+000 -8.037474e-001
    endloop
  endfacet
  facet normal -1.000000e+000  0.000000e+000  0.000000e+000
    outer loop
      vertex  0.000000e+000  2.208278e+000 -8.037474e-001
      vertex  0.000000e+000  1.432013e+000 -5.931593e-001
      vertex  0.000000e+000  1.520217e+000 -3.023900e-001
    endloop
  endfacet
  facet normal -1.000000e+000  0.000000e+000  0.000000e+000
    outer loop
      vertex  0.000000e+000  2.208278e+000 -8.037474e-001
      vertex  0.000000e+000  1.520217e+000 -3.023900e-001
      vertex  0.000000e+000  2.314298e+000 -4.080732e-001
    endloop
  endfacet
  facet normal -9.999999e-001  0.000000e+000  0.000000e+000
    outer loop
      vertex  0.000000e+000  2.314298e+000 -4.080732e-001
      vertex  0.000000e+000  1.520217e+000 -3.023900e-001
      vertex  0.000000e+000  1.550000e+000  0.000000e+000
    endloop
  endfacet
  facet normal -1.000000e+000  0.000000e+000  0.000000e+000
    outer loop
      vertex  0.000000e+000  2.314298e+000 -4.080732e-001
      vertex  0.000000e+000  1.550000e+000  0.000000e+000
      vertex  0.000000e+000  2.350000e+000 -5.755840e-016
    endloop
  endfacet
  facet normal -1.000000e+000  0.000000e+000  0.000000e+000
    outer loop
      vertex  0.000000e+000  2.350000e+000 -5.755840e-016
      vertex  0.000000e+000  1.550000e+000  0.000000e+000
      vertex  0.000000e+000  1.520217e+000  3.023900e-001
    endloop
  endfacet
  facet normal -1.000000e+000  0.000000e+000  0.000000e+000
    outer loop
      vertex  0.000000e+000  2.350000e+000 -5.755840e-016
      vertex  0.000000e+000  1.520217e+000  3.023900e-001
      vertex  0.000000e+000  2.314298e+000  4.080732e-001
    endloop
  endfacet
  facet normal -1.000000e+000  0.000000e+000  -0.000000e+000
    outer loop
      vertex  0.000000e+000  5.931593e-001 -1.432013e+000
      vertex  0.000000e+000  8.611339e-001 -1.288778e+000
      vertex  0.000000e+000  1.800204e+000 -1.510551e+000
    endloop
  endfacet
  facet normal -1.000000e+000  0.000000e+000  0.000000e+000
    outer loop
      vertex  0.000000e+000  1.800204e+000 -1.510551e+000
      vertex  0.000000e+000  8.611339e-001 -1.288778e+000
      vertex  0.000000e+000  1.096015e+000 -1.096015e+000
    endloop
  endfacet
  facet normal -9.999999e-001  0.000000e+000  0.000000e+000
    outer loop
      vertex  0.000000e+000  1.800204e+000 -1.510551e+000
      vertex  0.000000e+000  1.096015e+000 -1.096015e+000
      vertex  0.000000e+000  2.035160e+000 -1.175000e+000
    endloop
  endfacet
  facet normal -9.999999e-001  0.000000e+000  0.000000e+000
    outer loop
      vertex  0.000000e+000  2.035160e+000 -1.175000e+000
      vertex  0.000000e+000  1.096015e+000 -1.096015e+000
      vertex  0.000000e+000  1.288778e+000 -8.611339e-001
    endloop
  endfacet
  facet normal -1.000000e+000  0.000000e+000  0.000000e+000
    outer loop
      vertex  0.000000e+000  2.035160e+000 -1.175000e+000
      vertex  0.000000e+000  1.288778e+000 -8.611339e-001
      vertex  0.000000e+000  2.208278e+000 -8.037474e-001
    endloop
  endfacet
  facet normal -1.000000e+000  -0.000000e+000  0.000000e+000
    outer loop
      vertex  0.000000e+000  5.931593e-001 -1.432013e+000
      vertex  0.000000e+000  1.800204e+000 -1.510551e+000
      vertex  0.000000e+000  3.023900e-001 -1.520217e+000
    endloop
  endfacet
  facet normal -1.000000e+000  0.000000e+000  0.000000e+000
    outer loop
      vertex  0.000000e+000  3.023900e-001 -1.520217e+000
      vertex  0.000000e+000  1.800204e+000 -1.510551e+000
      vertex  0.000000e+000  1.510551e+000 -1.800204e+000
    endloop
  endfacet
  facet normal -1.000000e+000  0.000000e+000  0.000000e+000
    outer loop
      vertex  0.000000e+000  3.023900e-001 -1.520217e+000
      vertex  0.000000e+000  1.510551e+000 -1.800204e+000
      vertex  0.000000e+000 -2.847304e-016 -1.550000e+000
    endloop
  endfacet
  facet normal  0.000000e+000  9.801699e-002 -9.951848e-001
    outer loop
      vertex  0.000000e+000  9.491013e-017  1.550000e+000
      vertex  9.000000e+000 -3.023900e-001  1.520217e+000
      vertex  0.000000e+000 -3.023900e-001  1.520217e+000
    endloop
  endfacet
  facet normal  0.000000e+000  2.902847e-001 -9.569403e-001
    outer loop
      vertex  0.000000e+000 -3.023900e-001  1.520217e+000
      vertex  9.000000e+000 -3.023900e-001  1.520217e+000
      vertex  9.000000e+000 -5.931593e-001  1.432013e+000
    endloop
  endfacet
  facet normal  0.000000e+000  2.902847e-001 -9.569403e-001
    outer loop
      vertex  0.000000e+000 -3.023900e-001  1.520217e+000
      vertex  9.000000e+000 -5.931593e-001  1.432013e+000
      vertex  0.000000e+000 -5.931593e-001  1.432013e+000
    endloop
  endfacet
  facet normal  0.000000e+000  4.713966e-001 -8.819213e-001
    outer loop
      vertex  0.000000e+000 -5.931593e-001  1.432013e+000
      vertex  9.000000e+000 -5.931593e-001  1.432013e+000
      vertex  9.000000e+000 -8.611339e-001  1.288778e+000
    endloop
  endfacet
  facet normal  0.000000e+000  4.713966e-001 -8.819213e-001
    outer loop
      vertex  0.000000e+000 -5.931593e-001  1.432013e+000
      vertex  9.000000e+000 -8.611339e-001  1.288778e+000
      vertex  0.000000e+000 -8.611339e-001  1.288778e+000
    endloop
  endfacet
  facet normal  0.000000e+000  6.343936e-001 -7.730101e-001
    outer loop
      vertex  0.000000e+000 -8.611339e-001  1.288778e+000
      vertex  9.000000e+000 -8.611339e-001  1.288778e+000
      vertex  9.000000e+000 -1.096015e+000  1.096015e+000
    endloop
  endfacet
  facet normal  0.000000e+000  6.343936e-001 -7.730101e-001
    outer loop
      vertex  0.000000e+000 -8.611339e-001  1.288778e+000
      vertex  9.000000e+000 -1.096015e+000  1.096015e+000
      vertex  0.000000e+000 -1.096015e+000  1.096015e+000
    endloop
  endfacet
  facet normal  0.000000e+000  7.730101e-001 -6.343936e-001
    outer loop
      vertex  0.000000e+000 -1.096015e+000  1.096015e+000
      vertex  9.000000e+000 -1.096015e+000  1.096015e+000
      vertex  9.000000e+000 -1.288778e+000  8.611339e-001
    endloop
  endfacet
  facet normal  0.000000e+000  7.730101e-001 -6.343936e-001
    outer loop
      vertex  0.000000e+000 -1.096015e+000  1.096015e+000
      vertex  9.000000e+000 -1.288778e+000  8.611339e-001
      vertex  0.000000e+000 -1.288778e+000  8.611339e-001
    endloop
  endfacet
  facet normal  0.000000e+000  8.819213e-001 -4.713966e-001
    outer loop
      vertex  0.000000e+000 -1.288778e+000  8.611339e-001
      vertex  9.000000e+000 -1.288778e+000  8.611339e-001
      vertex  9.000000e+000 -1.432013e+000  5.931593e-001
    endloop
  endfacet
  facet normal  0.000000e+000  8.819213e-001 -4.713966e-001
    outer loop
      vertex  0.000000e+000 -1.288778e+000  8.611339e-001
      vertex  9.000000e+000 -1.432013e+000  5.931593e-001
      vertex  0.000000e+000 -1.432013e+000  5.931593e-001
    endloop
  endfacet
  facet normal  0.000000e+000  9.569403e-001 -2.902847e-001
    outer loop
      vertex  0.000000e+000 -1.432013e+000  5.931593e-001
      vertex  9.000000e+000 -1.432013e+000  5.931593e-001
      vertex  9.000000e+000 -1.520217e+000  3.023900e-001
    endloop
  endfacet
  facet normal  0.000000e+000  9.569403e-001 -2.902847e-001
    outer loop
      vertex  0.000000e+000 -1.432013e+000  5.931593e-001
      vertex  9.000000e+000 -1.520217e+000  3.023900e-001
      vertex  0.000000e+000 -1.520217e+000  3.023900e-001
    endloop
  endfacet
  facet normal  0.000000e+000  9.951848e-001 -9.801699e-002
    outer loop
      vertex  0.000000e+000 -1.520217e+000  3.023900e-001
      vertex  9.000000e+000 -1.520217e+000  3.023900e-001
      vertex  9.000000e+000 -1.550000e+000  1.898203e-016
    endloop
  endfacet
  facet normal  0.000000e+000  9.951848e-001 -9.801699e-002
    outer loop
      vertex  0.000000e+000 -1.520217e+000  3.023900e-001
      vertex  9.000000e+000 -1.550000e+000  1.898203e-016
      vertex  0.000000e+000 -1.550000e+000  1.898203e-016
    endloop
  endfacet
  facet normal  0.000000e+000  9.801699e-002 -9.951848e-001
    outer loop
      vertex  9.000000e+000 -3.023900e-001  1.520217e+000
      vertex  0.000000e+000  9.491013e-017  1.550000e+000
      vertex  9.000000e+000  9.491013e-017  1.550000e+000
    endloop
  endfacet
  facet normal  -0.000000e+000 -9.801699e-002 -9.951848e-001
    outer loop
      vertex  9.000000e+000  9.491013e-017  1.550000e+000
      vertex  0.000000e+000  9.491013e-017  1.550000e+000
      vertex  0.000000e+000  3.023900e-001  1.520217e+000
    endloop
  endfacet
  facet normal  0.000000e+000 -9.801699e-002 -9.951848e-001
    outer loop
      vertex  9.000000e+000  9.491013e-017  1.550000e+000
      vertex  0.000000e+000  3.023900e-001  1.520217e+000
      vertex  9.000000e+000  3.023900e-001  1.520217e+000
    endloop
  endfacet
  facet normal  -0.000000e+000 -2.902847e-001 -9.569403e-001
    outer loop
      vertex  9.000000e+000  3.023900e-001  1.520217e+000
      vertex  0.000000e+000  3.023900e-001  1.520217e+000
      vertex  0.000000e+000  5.931593e-001  1.432013e+000
    endloop
  endfacet
  facet normal  0.000000e+000 -2.902847e-001 -9.569403e-001
    outer loop
      vertex  9.000000e+000  3.023900e-001  1.520217e+000
      vertex  0.000000e+000  5.931593e-001  1.432013e+000
      vertex  9.000000e+000  5.931593e-001  1.432013e+000
    endloop
  endfacet
  facet normal  -0.000000e+000 -4.713966e-001 -8.819213e-001
    outer loop
      vertex  9.000000e+000  5.931593e-001  1.432013e+000
      vertex  0.000000e+000  5.931593e-001  1.432013e+000
      vertex  0.000000e+000  8.611339e-001  1.288778e+000
    endloop
  endfacet
  facet normal  0.000000e+000 -4.713966e-001 -8.819213e-001
    outer loop
      vertex  9.000000e+000  5.931593e-001  1.432013e+000
      vertex  0.000000e+000  8.611339e-001  1.288778e+000
      vertex  9.000000e+000  8.611339e-001  1.288778e+000
    endloop
  endfacet
  facet normal  -0.000000e+000 -6.343936e-001 -7.730101e-001
    outer loop
      vertex  9.000000e+000  8.611339e-001  1.288778e+000
      vertex  0.000000e+000  8.611339e-001  1.288778e+000
      vertex  0.000000e+000  1.096015e+000  1.096015e+000
    endloop
  endfacet
  facet normal  0.000000e+000 -6.343936e-001 -7.730101e-001
    outer loop
      vertex  9.000000e+000  8.611339e-001  1.288778e+000
      vertex  0.000000e+000  1.096015e+000  1.096015e+000
      vertex  9.000000e+000  1.096015e+000  1.096015e+000
    endloop
  endfacet
  facet normal  -0.000000e+000 -7.730101e-001 -6.343936e-001
    outer loop
      vertex  9.000000e+000  1.096015e+000  1.096015e+000
      vertex  0.000000e+000  1.096015e+000  1.096015e+000
      vertex  0.000000e+000  1.288778e+000  8.611339e-001
    endloop
  endfacet
  facet normal  0.000000e+000 -7.730101e-001 -6.343936e-001
    outer loop
      vertex  9.000000e+000  1.096015e+000  1.096015e+000
      vertex  0.000000e+000  1.288778e+000  8.611339e-001
      vertex  9.000000e+000  1.288778e+000  8.611339e-001
    endloop
  endfacet
  facet normal  -0.000000e+000 -8.819213e-001 -4.713966e-001
    outer loop
      vertex  9.000000e+000  1.288778e+000  8.611339e-001
      vertex  0.000000e+000  1.288778e+000  8.611339e-001
      vertex  0.000000e+000  1.432013e+000  5.931593e-001
    endloop
  endfacet
  facet normal  0.000000e+000 -8.819213e-001 -4.713966e-001
    outer loop
      vertex  9.000000e+000  1.288778e+000  8.611339e-001
      vertex  0.000000e+000  1.432013e+000  5.931593e-001
      vertex  9.000000e+000  1.432013e+000  5.931593e-001
    endloop
  endfacet
  facet normal  -0.000000e+000 -9.569403e-001 -2.902847e-001
    outer loop
      vertex  9.000000e+000  1.432013e+000  5.931593e-001
      vertex  0.000000e+000  1.432013e+000  5.931593e-001
      vertex  0.000000e+000  1.520217e+000  3.023900e-001
    endloop
  endfacet
  facet normal  0.000000e+000 -9.569403e-001 -2.902847e-001
    outer loop
      vertex  9.000000e+000  1.432013e+000  5.931593e-001
      vertex  0.000000e+000  1.520217e+000  3.023900e-001
      vertex  9.000000e+000  1.520217e+000  3.023900e-001
    endloop
  endfacet
  facet normal  -0.000000e+000 -9.951848e-001 -9.801699e-002
    outer loop
      vertex  9.000000e+000  1.520217e+000  3.023900e-001
      vertex  0.000000e+000  1.520217e+000  3.023900e-001
      vertex  0.000000e+000  1.550000e+000  0.000000e+000
    endloop
  endfacet
  facet normal  0.000000e+000 -9.951848e-001 -9.801699e-002
    outer loop
      vertex  9.000000e+000  1.520217e+000  3.023900e-001
      vertex  0.000000e+000  1.550000e+000  0.000000e+000
      vertex  9.000000e+000  1.550000e+000  0.000000e+000
    endloop
  endfacet
  facet normal  0.000000e+000 -9.801699e-002  9.951848e-001
    outer loop
      vertex  0.000000e+000 -2.847304e-016 -1.550000e+000
      vertex  9.000000e+000  3.023900e-001 -1.520217e+000
      vertex  0.000000e+000  3.023900e-001 -1.520217e+000
    endloop
  endfacet
  facet normal  0.000000e+000 -2.902847e-001  9.569403e-001
    outer loop
      vertex  0.000000e+000  3.023900e-001 -1.520217e+000
      vertex  9.000000e+000  3.023900e-001 -1.520217e+000
      vertex  9.000000e+000  5.931593e-001 -1.432013e+000
    endloop
  endfacet
  facet normal  0.000000e+000 -2.902847e-001  9.569403e-001
    outer loop
      vertex  0.000000e+000  3.023900e-001 -1.520217e+000
      vertex  9.000000e+000  5.931593e-001 -1.432013e+000
      vertex  0.000000e+000  5.931593e-001 -1.432013e+000
    endloop
  endfacet
  facet normal  0.000000e+000 -4.713966e-001  8.819213e-001
    outer loop
      vertex  0.000000e+000  5.931593e-001 -1.432013e+000
      vertex  9.000000e+000  5.931593e-001 -1.432013e+000
      vertex  9.000000e+000  8.611339e-001 -1.288778e+000
    endloop
  endfacet
  facet normal  0.000000e+000 -4.713966e-001  8.819213e-001
    outer loop
      vertex  0.000000e+000  5.931593e-001 -1.432013e+000
      vertex  9.000000e+000  8.611339e-001 -1.288778e+000
      vertex  0.000000e+000  8.611339e-001 -1.288778e+000
    endloop
  endfacet
  facet normal  0.000000e+000 -6.343936e-001  7.730101e-001
    outer loop
      vertex  0.000000e+000  8.611339e-001 -1.288778e+000
      vertex  9.000000e+000  8.611339e-001 -1.288778e+000
      vertex  9.000000e+000  1.096015e+000 -1.096015e+000
    endloop
  endfacet
  facet normal  0.000000e+000 -6.343936e-001  7.730101e-001
    outer loop
      vertex  0.000000e+000  8.611339e-001 -1.288778e+000
      vertex  9.000000e+000  1.096015e+000 -1.096015e+000
      vertex  0.000000e+000  1.096015e+000 -1.096015e+000
    endloop
  endfacet
  facet normal  0.000000e+000 -7.730101e-001  6.343936e-001
    outer loop
      vertex  0.000000e+000  1.096015e+000 -1.096015e+000
      vertex  9.000000e+000  1.096015e+000 -1.096015e+000
      vertex  9.000000e+000  1.288778e+000 -8.611339e-001
    endloop
  endfacet
  facet normal  0.000000e+000 -7.730101e-001  6.343936e-001
    outer loop
      vertex  0.000000e+000  1.096015e+000 -1.096015e+000
      vertex  9.000000e+000  1.288778e+000 -8.611339e-001
      vertex  0.000000e+000  1.288778e+000 -8.611339e-001
    endloop
  endfacet
  facet normal  0.000000e+000 -8.819213e-001  4.713966e-001
    outer loop
      vertex  0.000000e+000  1.288778e+000 -8.611339e-001
      vertex  9.000000e+000  1.288778e+000 -8.611339e-001
      vertex  9.000000e+000  1.432013e+000 -5.931593e-001
    endloop
  endfacet
  facet normal  0.000000e+000 -8.819213e-001  4.713966e-001
    outer loop
      vertex  0.000000e+000  1.288778e+000 -8.611339e-001
      vertex  9.000000e+000  1.432013e+000 -5.931593e-001
      vertex  0.000000e+000  1.432013e+000 -5.931593e-001
    endloop
  endfacet
  facet normal  0.000000e+000 -9.569403e-001  2.902847e-001
    outer loop
      vertex  0.000000e+000  1.432013e+000 -5.931593e-001
      vertex  9.000000e+000  1.432013e+000 -5.931593e-001
      vertex  9.000000e+000  1.520217e+000 -3.023900e-001
    endloop
  endfacet
  facet normal  0.000000e+000 -9.569403e-001  2.902847e-001
    outer loop
      vertex  0.000000e+000  1.432013e+000 -5.931593e-001
      vertex  9.000000e+000  1.520217e+000 -3.023900e-001
      vertex  0.000000e+000  1.520217e+000 -3.023900e-001
    endloop
  endfacet
  facet normal  0.000000e+000 -9.951848e-001  9.801699e-002
    outer loop
      vertex  0.000000e+000  1.520217e+000 -3.023900e-001
      vertex  9.000000e+000  1.520217e+000 -3.023900e-001
      vertex  9.000000e+000  1.550000e+000  0.000000e+000
    endloop
  endfacet
  facet normal  0.000000e+000 -9.951848e-001  9.801699e-002
    outer loop
      vertex  0.000000e+000  1.520217e+000 -3.023900e-001
      vertex  9.000000e+000  1.550000e+000  0.000000e+000
      vertex  0.000000e+000  1.550000e+000  0.000000e+000
    endloop
  endfacet
  facet normal  0.000000e+000 -9.801699e-002  9.951848e-001
    outer loop
      vertex  9.000000e+000  3.023900e-001 -1.520217e+000
      vertex  0.000000e+000 -2.847304e-016 -1.550000e+000
      vertex  9.000000e+000 -2.847304e-016 -1.550000e+000
    endloop
  endfacet
  facet normal  0.000000e+000  9.801699e-002  9.951848e-001
    outer loop
      vertex  9.000000e+000 -2.847304e-016 -1.550000e+000
      vertex  0.000000e+000 -2.847304e-016 -1.550000e+000
      vertex  0.000000e+000 -3.023900e-001 -1.520217e+000
    endloop
  endfacet
  facet normal  -0.000000e+000  9.801699e-002  9.951848e-001
    outer loop
      vertex  9.000000e+000 -2.847304e-016 -1.550000e+000
      vertex  0.000000e+000 -3.023900e-001 -1.520217e+000
      vertex  9.000000e+000 -3.023900e-001 -1.520217e+000
    endloop
  endfacet
  facet normal  0.000000e+000  2.902847e-001  9.569403e-001
    outer loop
      vertex  9.000000e+000 -3.023900e-001 -1.520217e+000
      vertex  0.000000e+000 -3.023900e-001 -1.520217e+000
      vertex  0.000000e+000 -5.931593e-001 -1.432013e+000
    endloop
  endfacet
  facet normal  -0.000000e+000  2.902847e-001  9.569403e-001
    outer loop
      vertex  9.000000e+000 -3.023900e-001 -1.520217e+000
      vertex  0.000000e+000 -5.931593e-001 -1.432013e+000
      vertex  9.000000e+000 -5.931593e-001 -1.432013e+000
    endloop
  endfacet
  facet normal  0.000000e+000  4.713966e-001  8.819213e-001
    outer loop
      vertex  9.000000e+000 -5.931593e-001 -1.432013e+000
      vertex  0.000000e+000 -5.931593e-001 -1.432013e+000
      vertex  0.000000e+000 -8.611339e-001 -1.288778e+000
    endloop
  endfacet
  facet normal  -0.000000e+000  4.713966e-001  8.819213e-001
    outer loop
      vertex  9.000000e+000 -5.931593e-001 -1.432013e+000
      vertex  0.000000e+000 -8.611339e-001 -1.288778e+000
      vertex  9.000000e+000 -8.611339e-001 -1.288778e+000
    endloop
  endfacet
  facet normal  0.000000e+000  6.343936e-001  7.730101e-001
    outer loop
      vertex  9.000000e+000 -8.611339e-001 -1.288778e+000
      vertex  0.000000e+000 -8.611339e-001 -1.288778e+000
      vertex  0.000000e+000 -1.096015e+000 -1.096015e+000
    endloop
  endfacet
  facet normal  -0.000000e+000  6.343936e-001  7.730101e-001
    outer loop
      vertex  9.000000e+000 -8.611339e-001 -1.288778e+000
      vertex  0.000000e+000 -1.096015e+000 -1.096015e+000
      vertex  9.000000e+000 -1.096015e+000 -1.096015e+000
    endloop
  endfacet
  facet normal  0.000000e+000  7.730101e-001  6.343936e-001
    outer loop
      vertex  9.000000e+000 -1.096015e+000 -1.096015e+000
      vertex  0.000000e+000 -1.096015e+000 -1.096015e+000
      vertex  0.000000e+000 -1.288778e+000 -8.611339e-001
    endloop
  endfacet
  facet normal  -0.000000e+000  7.730101e-001  6.343936e-001
    outer loop
      vertex  9.000000e+000 -1.096015e+000 -1.096015e+000
      vertex  0.000000e+000 -1.288778e+000 -8.611339e-001
      vertex  9.000000e+000 -1.288778e+000 -8.611339e-001
    endloop
  endfacet
  facet normal  0.000000e+000  8.819213e-001  4.713966e-001
    outer loop
      vertex  9.000000e+000 -1.288778e+000 -8.611339e-001
      vertex  0.000000e+000 -1.288778e+000 -8.611339e-001
      vertex  0.000000e+000 -1.432013e+000 -5.931593e-001
    endloop
  endfacet
  facet normal  -0.000000e+000  8.819213e-001  4.713966e-001
    outer loop
      vertex  9.000000e+000 -1.288778e+000 -8.611339e-001
      vertex  0.000000e+000 -1.432013e+000 -5.931593e-001
      vertex  9.000000e+000 -1.432013e+000 -5.931593e-001
    endloop
  endfacet
  facet normal  0.000000e+000  9.569403e-001  2.902847e-001
    outer loop
      vertex  9.000000e+000 -1.432013e+000 -5.931593e-001
      vertex  0.000000e+000 -1.432013e+000 -5.931593e-001
      vertex  0.000000e+000 -1.520217e+000 -3.023900e-001
    endloop
  endfacet
  facet normal  -0.000000e+000  9.569403e-001  2.902847e-001
    outer loop
      vertex  9.000000e+000 -1.432013e+000 -5.931593e-001
      vertex  0.000000e+000 -1.520217e+000 -3.023900e-001
      vertex  9.000000e+000 -1.520217e+000 -3.023900e-001
    endloop
  endfacet
  facet normal  0.000000e+000  9.951848e-001  9.801699e-002
    outer loop
      vertex  9.000000e+000 -1.520217e+000 -3.023900e-001
      vertex  0.000000e+000 -1.520217e+000 -3.023900e-001
      vertex  0.000000e+000 -1.550000e+000  1.898203e-016
    endloop
  endfacet
  facet normal  -0.000000e+000  9.951848e-001  9.801699e-002
    outer loop
      vertex  9.000000e+000 -1.520217e+000 -3.023900e-001
      vertex  0.000000e+000 -1.550000e+000  1.898203e-016
      vertex  9.000000e+000 -1.550000e+000  1.898203e-016
    endloop
  endfacet
  facet normal  0.000000e+000 -9.961947e-001  8.715567e-002
    outer loop
      vertex  0.000000e+000 -2.350000e+000  2.877920e-016
      vertex  9.000000e+000 -2.350000e+000  2.877920e-016
      vertex  0.000000e+000 -2.314298e+000  4.080732e-001
    endloop
  endfacet
  facet normal  0.000000e+000 -9.961947e-001  8.715567e-002
    outer loop
      vertex  0.000000e+000 -2.314298e+000  4.080732e-001
      vertex  9.000000e+000 -2.350000e+000  2.877920e-016
      vertex  9.000000e+000 -2.314298e+000  4.080732e-001
    endloop
  endfacet
  facet normal  0.000000e+000 -9.659259e-001  2.588188e-001
    outer loop
      vertex  0.000000e+000 -2.314298e+000  4.080732e-001
      vertex  9.000000e+000 -2.314298e+000  4.080732e-001
      vertex  0.000000e+000 -2.208278e+000  8.037474e-001
    endloop
  endfacet
  facet normal  0.000000e+000 -9.659259e-001  2.588188e-001
    outer loop
      vertex  0.000000e+000 -2.208278e+000  8.037474e-001
      vertex  9.000000e+000 -2.314298e+000  4.080732e-001
      vertex  9.000000e+000 -2.208278e+000  8.037474e-001
    endloop
  endfacet
  facet normal  0.000000e+000 -9.063076e-001  4.226186e-001
    outer loop
      vertex  0.000000e+000 -2.208278e+000  8.037474e-001
      vertex  9.000000e+000 -2.208278e+000  8.037474e-001
      vertex  0.000000e+000 -2.035160e+000  1.175000e+000
    endloop
  endfacet
  facet normal  0.000000e+000 -9.063076e-001  4.226186e-001
    outer loop
      vertex  0.000000e+000 -2.035160e+000  1.175000e+000
      vertex  9.000000e+000 -2.208278e+000  8.037474e-001
      vertex  9.000000e+000 -2.035160e+000  1.175000e+000
    endloop
  endfacet
  facet normal  0.000000e+000 -8.191521e-001  5.735763e-001
    outer loop
      vertex  0.000000e+000 -2.035160e+000  1.175000e+000
      vertex  9.000000e+000 -2.035160e+000  1.175000e+000
      vertex  0.000000e+000 -1.800204e+000  1.510551e+000
    endloop
  endfacet
  facet normal  0.000000e+000 -8.191521e-001  5.735763e-001
    outer loop
      vertex  0.000000e+000 -1.800204e+000  1.510551e+000
      vertex  9.000000e+000 -2.035160e+000  1.175000e+000
      vertex  9.000000e+000 -1.800204e+000  1.510551e+000
    endloop
  endfacet
  facet normal  0.000000e+000 -7.071068e-001  7.071068e-001
    outer loop
      vertex  0.000000e+000 -1.800204e+000  1.510551e+000
      vertex  9.000000e+000 -1.800204e+000  1.510551e+000
      vertex  0.000000e+000 -1.510551e+000  1.800204e+000
    endloop
  endfacet
  facet normal  0.000000e+000 -7.071068e-001  7.071068e-001
    outer loop
      vertex  0.000000e+000 -1.510551e+000  1.800204e+000
      vertex  9.000000e+000 -1.800204e+000  1.510551e+000
      vertex  9.000000e+000 -1.510551e+000  1.800204e+000
    endloop
  endfacet
  facet normal  0.000000e+000 -5.735763e-001  8.191521e-001
    outer loop
      vertex  0.000000e+000 -1.510551e+000  1.800204e+000
      vertex  9.000000e+000 -1.510551e+000  1.800204e+000
      vertex  0.000000e+000 -1.175000e+000  2.035160e+000
    endloop
  endfacet
  facet normal  0.000000e+000 -5.735763e-001  8.191521e-001
    outer loop
      vertex  0.000000e+000 -1.175000e+000  2.035160e+000
      vertex  9.000000e+000 -1.510551e+000  1.800204e+000
      vertex  9.000000e+000 -1.175000e+000  2.035160e+000
    endloop
  endfacet
  facet normal  0.000000e+000 -4.226186e-001  9.063076e-001
    outer loop
      vertex  0.000000e+000 -1.175000e+000  2.035160e+000
      vertex  9.000000e+000 -1.175000e+000  2.035160e+000
      vertex  0.000000e+000 -8.037474e-001  2.208278e+000
    endloop
  endfacet
  facet normal  0.000000e+000 -4.226186e-001  9.063076e-001
    outer loop
      vertex  0.000000e+000 -8.037474e-001  2.208278e+000
      vertex  9.000000e+000 -1.175000e+000  2.035160e+000
      vertex  9.000000e+000 -8.037474e-001  2.208278e+000
    endloop
  endfacet
  facet normal  0.000000e+000 -2.588188e-001  9.659259e-001
    outer loop
      vertex  0.000000e+000 -8.037474e-001  2.208278e+000
      vertex  9.000000e+000 -8.037474e-001  2.208278e+000
      vertex  0.000000e+000 -4.080732e-001  2.314298e+000
    endloop
  endfacet
  facet normal  0.000000e+000 -2.588188e-001  9.659259e-001
    outer loop
      vertex  0.000000e+000 -4.080732e-001  2.314298e+000
      vertex  9.000000e+000 -8.037474e-001  2.208278e+000
      vertex  9.000000e+000 -4.080732e-001  2.314298e+000
    endloop
  endfacet
  facet normal  0.000000e+000 -8.715567e-002  9.961947e-001
    outer loop
      vertex  0.000000e+000 -4.080732e-001  2.314298e+000
      vertex  9.000000e+000 -4.080732e-001  2.314298e+000
      vertex  0.000000e+000  1.438960e-016  2.350000e+000
    endloop
  endfacet
  facet normal  0.000000e+000 -8.715567e-002  9.961947e-001
    outer loop
      vertex  0.000000e+000  1.438960e-016  2.350000e+000
      vertex  9.000000e+000 -4.080732e-001  2.314298e+000
      vertex  9.000000e+000  1.438960e-016  2.350000e+000
    endloop
  endfacet
  facet normal  0.000000e+000  8.715567e-002  9.961947e-001
    outer loop
      vertex  0.000000e+000  1.438960e-016  2.350000e+000
      vertex  9.000000e+000  1.438960e-016  2.350000e+000
      vertex  0.000000e+000  4.080732e-001  2.314298e+000
    endloop
  endfacet
  facet normal  -0.000000e+000  8.715567e-002  9.961947e-001
    outer loop
      vertex  0.000000e+000  4.080732e-001  2.314298e+000
      vertex  9.000000e+000  1.438960e-016  2.350000e+000
      vertex  9.000000e+000  4.080732e-001  2.314298e+000
    endloop
  endfacet
  facet normal  0.000000e+000  2.588188e-001  9.659259e-001
    outer loop
      vertex  0.000000e+000  4.080732e-001  2.314298e+000
      vertex  9.000000e+000  4.080732e-001  2.314298e+000
      vertex  0.000000e+000  8.037474e-001  2.208278e+000
    endloop
  endfacet
  facet normal  -0.000000e+000  2.588188e-001  9.659259e-001
    outer loop
      vertex  0.000000e+000  8.037474e-001  2.208278e+000
      vertex  9.000000e+000  4.080732e-001  2.314298e+000
      vertex  9.000000e+000  8.037474e-001  2.208278e+000
    endloop
  endfacet
  facet normal  0.000000e+000  4.226186e-001  9.063076e-001
    outer loop
      vertex  0.000000e+000  8.037474e-001  2.208278e+000
      vertex  9.000000e+000  8.037474e-001  2.208278e+000
      vertex  0.000000e+000  1.175000e+000  2.035160e+000
    endloop
  endfacet
  facet normal  -0.000000e+000  4.226186e-001  9.063076e-001
    outer loop
      vertex  0.000000e+000  1.175000e+000  2.035160e+000
      vertex  9.000000e+000  8.037474e-001  2.208278e+000
      vertex  9.000000e+000  1.175000e+000  2.035160e+000
    endloop
  endfacet
  facet normal  0.000000e+000  5.735763e-001  8.191521e-001
    outer loop
      vertex  0.000000e+000  1.175000e+000  2.035160e+000
      vertex  9.000000e+000  1.175000e+000  2.035160e+000
      vertex  0.000000e+000  1.510551e+000  1.800204e+000
    endloop
  endfacet
  facet normal  -0.000000e+000  5.735763e-001  8.191521e-001
    outer loop
      vertex  0.000000e+000  1.510551e+000  1.800204e+000
      vertex  9.000000e+000  1.175000e+000  2.035160e+000
      vertex  9.000000e+000  1.510551e+000  1.800204e+000
    endloop
  endfacet
  facet normal  0.000000e+000  7.071068e-001  7.071068e-001
    outer loop
      vertex  0.000000e+000  1.510551e+000  1.800204e+000
      vertex  9.000000e+000  1.510551e+000  1.800204e+000
      vertex  0.000000e+000  1.800204e+000  1.510551e+000
    endloop
  endfacet
  facet normal  -0.000000e+000  7.071068e-001  7.071068e-001
    outer loop
      vertex  0.000000e+000  1.800204e+000  1.510551e+000
      vertex  9.000000e+000  1.510551e+000  1.800204e+000
      vertex  9.000000e+000  1.800204e+000  1.510551e+000
    endloop
  endfacet
  facet normal  0.000000e+000  8.191521e-001  5.735763e-001
    outer loop
      vertex  0.000000e+000  1.800204e+000  1.510551e+000
      vertex  9.000000e+000  1.800204e+000  1.510551e+000
      vertex  0.000000e+000  2.035160e+000  1.175000e+000
    endloop
  endfacet
  facet normal  -0.000000e+000  8.191521e-001  5.735763e-001
    outer loop
      vertex  0.000000e+000  2.035160e+000  1.175000e+000
      vertex  9.000000e+000  1.800204e+000  1.510551e+000
      vertex  9.000000e+000  2.035160e+000  1.175000e+000
    endloop
  endfacet
  facet normal  0.000000e+000  9.063076e-001  4.226186e-001
    outer loop
      vertex  0.000000e+000  2.035160e+000  1.175000e+000
      vertex  9.000000e+000  2.035160e+000  1.175000e+000
      vertex  0.000000e+000  2.208278e+000  8.037474e-001
    endloop
  endfacet
  facet normal  -0.000000e+000  9.063076e-001  4.226186e-001
    outer loop
      vertex  0.000000e+000  2.208278e+000  8.037474e-001
      vertex  9.000000e+000  2.035160e+000  1.175000e+000
      vertex  9.000000e+000  2.208278e+000  8.037474e-001
    endloop
  endfacet
  facet normal  0.000000e+000  9.659259e-001  2.588188e-001
    outer loop
      vertex  0.000000e+000  2.208278e+000  8.037474e-001
      vertex  9.000000e+000  2.208278e+000  8.037474e-001
      vertex  0.000000e+000  2.314298e+000  4.080732e-001
    endloop
  endfacet
  facet normal  -0.000000e+000  9.659259e-001  2.588188e-001
    outer loop
      vertex  0.000000e+000  2.314298e+000  4.080732e-001
      vertex  9.000000e+000  2.208278e+000  8.037474e-001
      vertex  9.000000e+000  2.314298e+000  4.080732e-001
    endloop
  endfacet
  facet normal  0.000000e+000  9.961947e-001  8.715567e-002
    outer loop
      vertex  0.000000e+000  2.314298e+000  4.080732e-001
      vertex  9.000000e+000  2.314298e+000  4.080732e-001
      vertex  0.000000e+000  2.350000e+000 -5.755840e-016
    endloop
  endfacet
  facet normal  -0.000000e+000  9.961947e-001  8.715567e-002
    outer loop
      vertex  0.000000e+000  2.350000e+000 -5.755840e-016
      vertex  9.000000e+000  2.314298e+000  4.080732e-001
      vertex  9.000000e+000  2.350000e+000 -5.755840e-016
    endloop
  endfacet
  facet normal  0.000000e+000  9.961947e-001 -8.715567e-002
    outer loop
      vertex  0.000000e+000  2.350000e+000 -5.755840e-016
      vertex  9.000000e+000  2.350000e+000 -5.755840e-016
      vertex  0.000000e+000  2.314298e+000 -4.080732e-001
    endloop
  endfacet
  facet normal  0.000000e+000  9.961947e-001 -8.715567e-002
    outer loop
      vertex  0.000000e+000  2.314298e+000 -4.080732e-001
      vertex  9.000000e+000  2.350000e+000 -5.755840e-016
      vertex  9.000000e+000  2.314298e+000 -4.080732e-001
    endloop
  endfacet
  facet normal  0.000000e+000  9.659259e-001 -2.588188e-001
    outer loop
      vertex  0.000000e+000  2.314298e+000 -4.080732e-001
      vertex  9.000000e+000  2.314298e+000 -4.080732e-001
      vertex  0.000000e+000  2.208278e+000 -8.037474e-001
    endloop
  endfacet
  facet normal  0.000000e+000  9.659259e-001 -2.588188e-001
    outer loop
      vertex  0.000000e+000  2.208278e+000 -8.037474e-001
      vertex  9.000000e+000  2.314298e+000 -4.080732e-001
      vertex  9.000000e+000  2.208278e+000 -8.037474e-001
    endloop
  endfacet
  facet normal  0.000000e+000  9.063076e-001 -4.226186e-001
    outer loop
      vertex  0.000000e+000  2.208278e+000 -8.037474e-001
      vertex  9.000000e+000  2.208278e+000 -8.037474e-001
      vertex  0.000000e+000  2.035160e+000 -1.175000e+000
    endloop
  endfacet
  facet normal  0.000000e+000  9.063076e-001 -4.226186e-001
    outer loop
      vertex  0.000000e+000  2.035160e+000 -1.175000e+000
      vertex  9.000000e+000  2.208278e+000 -8.037474e-001
      vertex  9.000000e+000  2.035160e+000 -1.175000e+000
    endloop
  endfacet
  facet normal  0.000000e+000  8.191521e-001 -5.735763e-001
    outer loop
      vertex  0.000000e+000  2.035160e+000 -1.175000e+000
      vertex  9.000000e+000  2.035160e+000 -1.175000e+000
      vertex  0.000000e+000  1.800204e+000 -1.510551e+000
    endloop
  endfacet
  facet normal  0.000000e+000  8.191521e-001 -5.735763e-001
    outer loop
      vertex  0.000000e+000  1.800204e+000 -1.510551e+000
      vertex  9.000000e+000  2.035160e+000 -1.175000e+000
      vertex  9.000000e+000  1.800204e+000 -1.510551e+000
    endloop
  endfacet
  facet normal  0.000000e+000  7.071068e-001 -7.071068e-001
    outer loop
      vertex  0.000000e+000  1.800204e+000 -1.510551e+000
      vertex  9.000000e+000  1.800204e+000 -1.510551e+000
      vertex  0.000000e+000  1.510551e+000 -1.800204e+000
    endloop
  endfacet
  facet normal  0.000000e+000  7.071068e-001 -7.071068e-001
    outer loop
      vertex  0.000000e+000  1.510551e+000 -1.800204e+000
      vertex  9.000000e+000  1.800204e+000 -1.510551e+000
      vertex  9.000000e+000  1.510551e+000 -1.800204e+000
    endloop
  endfacet
  facet normal  0.000000e+000  5.735763e-001 -8.191521e-001
    outer loop
      vertex  0.000000e+000  1.510551e+000 -1.800204e+000
      vertex  9.000000e+000  1.510551e+000 -1.800204e+000
      vertex  0.000000e+000  1.175000e+000 -2.035160e+000
    endloop
  endfacet
  facet normal  0.000000e+000  5.735763e-001 -8.191521e-001
    outer loop
      vertex  0.000000e+000  1.175000e+000 -2.035160e+000
      vertex  9.000000e+000  1.510551e+000 -1.800204e+000
      vertex  9.000000e+000  1.175000e+000 -2.035160e+000
    endloop
  endfacet
  facet normal  0.000000e+000  4.226186e-001 -9.063076e-001
    outer loop
      vertex  0.000000e+000  1.175000e+000 -2.035160e+000
      vertex  9.000000e+000  1.175000e+000 -2.035160e+000
      vertex  0.000000e+000  8.037474e-001 -2.208278e+000
    endloop
  endfacet
  facet normal  0.000000e+000  4.226186e-001 -9.063076e-001
    outer loop
      vertex  0.000000e+000  8.037474e-001 -2.208278e+000
      vertex  9.000000e+000  1.175000e+000 -2.035160e+000
      vertex  9.000000e+000  8.037474e-001 -2.208278e+000
    endloop
  endfacet
  facet normal  0.000000e+000  2.588188e-001 -9.659259e-001
    outer loop
      vertex  0.000000e+000  8.037474e-001 -2.208278e+000
      vertex  9.000000e+000  8.037474e-001 -2.208278e+000
      vertex  0.000000e+000  4.080732e-001 -2.314298e+000
    endloop
  endfacet
  facet normal  0.000000e+000  2.588188e-001 -9.659259e-001
    outer loop
      vertex  0.000000e+000  4.080732e-001 -2.314298e+000
      vertex  9.000000e+000  8.037474e-001 -2.208278e+000
      vertex  9.000000e+000  4.080732e-001 -2.314298e+000
    endloop
  endfacet
  facet normal  0.000000e+000  8.715567e-002 -9.961947e-001
    outer loop
      vertex  0.000000e+000  4.080732e-001 -2.314298e+000
      vertex  9.000000e+000  4.080732e-001 -2.314298e+000
      vertex  0.000000e+000 -2.518907e-015 -2.350000e+000
    endloop
  endfacet
  facet normal  0.000000e+000  8.715567e-002 -9.961947e-001
    outer loop
      vertex  0.000000e+000 -2.518907e-015 -2.350000e+000
      vertex  9.000000e+000  4.080732e-001 -2.314298e+000
      vertex  9.000000e+000 -2.518907e-015 -2.350000e+000
    endloop
  endfacet
  facet normal  -0.000000e+000 -8.715567e-002 -9.961947e-001
    outer loop
      vertex  0.000000e+000 -2.518907e-015 -2.350000e+000
      vertex  9.000000e+000 -2.518907e-015 -2.350000e+000
      vertex  0.000000e+000 -4.080732e-001 -2.314298e+000
    endloop
  endfacet
  facet normal  0.000000e+000 -8.715567e-002 -9.961947e-001
    outer loop
      vertex  0.000000e+000 -4.080732e-001 -2.314298e+000
      vertex  9.000000e+000 -2.518907e-015 -2.350000e+000
      vertex  9.000000e+000 -4.080732e-001 -2.314298e+000
    endloop
  endfacet
  facet normal  -0.000000e+000 -2.588188e-001 -9.659259e-001
    outer loop
      vertex  0.000000e+000 -4.080732e-001 -2.314298e+000
      vertex  9.000000e+000 -4.080732e-001 -2.314298e+000
      vertex  0.000000e+000 -8.037474e-001 -2.208278e+000
    endloop
  endfacet
  facet normal  0.000000e+000 -2.588188e-001 -9.659259e-001
    outer loop
      vertex  0.000000e+000 -8.037474e-001 -2.208278e+000
      vertex  9.000000e+000 -4.080732e-001 -2.314298e+000
      vertex  9.000000e+000 -8.037474e-001 -2.208278e+000
    endloop
  endfacet
  facet normal  -0.000000e+000 -4.226186e-001 -9.063076e-001
    outer loop
      vertex  0.000000e+000 -8.037474e-001 -2.208278e+000
      vertex  9.000000e+000 -8.037474e-001 -2.208278e+000
      vertex  0.000000e+000 -1.175000e+000 -2.035160e+000
    endloop
  endfacet
  facet normal  0.000000e+000 -4.226186e-001 -9.063076e-001
    outer loop
      vertex  0.000000e+000 -1.175000e+000 -2.035160e+000
      vertex  9.000000e+000 -8.037474e-001 -2.208278e+000
      vertex  9.000000e+000 -1.175000e+000 -2.035160e+000
    endloop
  endfacet
  facet normal  -0.000000e+000 -5.735763e-001 -8.191521e-001
    outer loop
      vertex  0.000000e+000 -1.175000e+000 -2.035160e+000
      vertex  9.000000e+000 -1.175000e+000 -2.035160e+000
      vertex  0.000000e+000 -1.510551e+000 -1.800204e+000
    endloop
  endfacet
  facet normal  0.000000e+000 -5.735763e-001 -8.191521e-001
    outer loop
      vertex  0.000000e+000 -1.510551e+000 -1.800204e+000
      vertex  9.000000e+000 -1.175000e+000 -2.035160e+000
      vertex  9.000000e+000 -1.510551e+000 -1.800204e+000
    endloop
  endfacet
  facet normal  -0.000000e+000 -7.071068e-001 -7.071068e-001
    outer loop
      vertex  0.000000e+000 -1.510551e+000 -1.800204e+000
      vertex  9.000000e+000 -1.510551e+000 -1.800204e+000
      vertex  0.000000e+000 -1.800204e+000 -1.510551e+000
    endloop
  endfacet
  facet normal  0.000000e+000 -7.071068e-001 -7.071068e-001
    outer loop
      vertex  0.000000e+000 -1.800204e+000 -1.510551e+000
      vertex  9.000000e+000 -1.510551e+000 -1.800204e+000
      vertex  9.000000e+000 -1.800204e+000 -1.510551e+000
    endloop
  endfacet
  facet normal  -0.000000e+000 -8.191521e-001 -5.735763e-001
    outer loop
      vertex  0.000000e+000 -1.800204e+000 -1.510551e+000
      vertex  9.000000e+000 -1.800204e+000 -1.510551e+000
      vertex  0.000000e+000 -2.035160e+000 -1.175000e+000
    endloop
  endfacet
  facet normal  0.000000e+000 -8.191521e-001 -5.735763e-001
    outer loop
      vertex  0.000000e+000 -2.035160e+000 -1.175000e+000
      vertex  9.000000e+000 -1.800204e+000 -1.510551e+000
      vertex  9.000000e+000 -2.035160e+000 -1.175000e+000
    endloop
  endfacet
  facet normal  -0.000000e+000 -9.063076e-001 -4.226186e-001
    outer loop
      vertex  0.000000e+000 -2.035160e+000 -1.175000e+000
      vertex  9.000000e+000 -2.035160e+000 -1.175000e+000
      vertex  0.000000e+000 -2.208278e+000 -8.037474e-001
    endloop
  endfacet
  facet normal  0.000000e+000 -9.063076e-001 -4.226186e-001
    outer loop
      vertex  0.000000e+000 -2.208278e+000 -8.037474e-001
      vertex  9.000000e+000 -2.035160e+000 -1.175000e+000
      vertex  9.000000e+000 -2.208278e+000 -8.037474e-001
    endloop
  endfacet
  facet normal  -0.000000e+000 -9.659259e-001 -2.588188e-001
    outer loop
      vertex  0.000000e+000 -2.208278e+000 -8.037474e-001
      vertex  9.000000e+000 -2.208278e+000 -8.037474e-001
      vertex  0.000000e+000 -2.314298e+000 -4.080732e-001
    endloop
  endfacet
  facet normal  0.000000e+000 -9.659259e-001 -2.588188e-001
    outer loop
      vertex  0.000000e+000 -2.314298e+000 -4.080732e-001
      vertex  9.000000e+000 -2.208278e+000 -8.037474e-001
      vertex  9.000000e+000 -2.314298e+000 -4.080732e-001
    endloop
  endfacet
  facet normal  -0.000000e+000 -9.961947e-001 -8.715567e-002
    outer loop
      vertex  0.000000e+000 -2.314298e+000 -4.080732e-001
      vertex  9.000000e+000 -2.314298e+000 -4.080732e-001
      vertex  0.000000e+000 -2.350000e+000  2.877920e-016
    endloop
  endfacet
  facet normal  0.000000e+000 -9.961947e-001 -8.715567e-002
    outer loop
      vertex  0.000000e+000 -2.350000e+000  2.877920e-016
      vertex  9.000000e+000 -2.314298e+000 -4.080732e-001
      vertex  9.000000e+000 -2.350000e+000  2.877920e-016
    endloop
  endfacet
endsolid CATIA STL
